<svg width="399" height="59" viewBox="0 0 399 59" fill="none" xmlns="http://www.w3.org/2000/svg">
<path d="M34.5732 45.0117C34.443 49.5039 33.0189 52.9626 30.3008 55.3877C27.599 57.7965 23.7741 59.001 18.8262 59.001C13.0319 59.001 8.57227 57.471 5.44727 54.4111C2.33854 51.335 0.78418 46.9486 0.78418 41.252C0.78418 35.8646 2.39551 31.5514 5.61816 28.3125C8.8571 25.0736 13.1784 23.4541 18.582 23.4541C20.3887 23.4541 22.0732 23.6494 23.6357 24.04C25.2145 24.4144 26.7119 25.0003 28.1279 25.7979L28.9824 23.9424H34.4268V37.7607H28.4209C27.835 34.5381 26.9398 32.2025 25.7354 30.7539C24.5309 29.2891 22.9115 28.5566 20.877 28.5566C18.5169 28.5566 16.7998 29.5576 15.7256 31.5596C14.6514 33.5452 14.1143 36.7435 14.1143 41.1543C14.1143 45.7116 14.6676 48.9912 15.7744 50.9932C16.8812 52.9951 18.6797 53.9961 21.1699 53.9961C23.4323 53.9961 25.2878 53.1904 26.7363 51.5791C28.1849 49.9515 28.9987 47.7624 29.1777 45.0117H34.5732Z" fill="black"/>
<path d="M56.5898 33.4883C61.0332 33.4883 64.5407 34.6276 67.1123 36.9062C69.7002 39.1849 70.9941 42.2855 70.9941 46.208C70.9941 50.1143 69.7083 53.1986 67.1367 55.4609C64.5814 57.7233 61.082 58.8545 56.6387 58.8545C52.1628 58.8545 48.6553 57.7314 46.1162 55.4854C43.5934 53.2393 42.332 50.1468 42.332 46.208C42.332 42.2529 43.5934 39.1442 46.1162 36.8818C48.6553 34.6195 52.1465 33.4883 56.5898 33.4883ZM60.3252 46.208C60.3252 43.1644 60.0404 41.0648 59.4707 39.9092C58.9173 38.7373 57.957 38.1514 56.5898 38.1514C55.2552 38.1514 54.3112 38.7373 53.7578 39.9092C53.2044 41.0648 52.9277 43.1644 52.9277 46.208C52.9277 49.2516 53.2044 51.3512 53.7578 52.5068C54.3275 53.6624 55.304 54.2402 56.6875 54.2402C58.0221 54.2402 58.958 53.6706 59.4951 52.5312C60.0485 51.3757 60.3252 49.2679 60.3252 46.208Z" fill="black"/>
<path d="M81.6338 38.957H78.1426V34.3916H81.6338V33.0488C81.6338 29.696 82.5127 27.279 84.2705 25.7979C86.0283 24.3005 88.8522 23.5518 92.7422 23.5518C95.444 23.5518 97.6006 24.0807 99.2119 25.1387C100.84 26.1803 101.653 27.5638 101.653 29.2891C101.653 30.4121 101.246 31.3398 100.433 32.0723C99.6351 32.7884 98.6016 33.1465 97.332 33.1465C96.209 33.1465 95.2894 32.8454 94.5732 32.2432C93.8571 31.641 93.499 30.876 93.499 29.9482C93.499 29.346 93.6455 28.8089 93.9385 28.3369C94.2477 27.8649 94.6953 27.4499 95.2812 27.0918C94.9883 27.0104 94.736 26.9535 94.5244 26.9209C94.3291 26.8721 94.1501 26.8477 93.9873 26.8477C93.0921 26.8477 92.4492 27.165 92.0586 27.7998C91.6842 28.4346 91.4971 29.5658 91.4971 31.1934V34.3916H95.8428V38.957H91.4971V51.1885C91.4971 52.1813 91.6436 52.8324 91.9365 53.1416C92.2458 53.4508 92.8805 53.6055 93.8408 53.6055H95.9404V58H78.1426V53.6055H79.3389C80.2829 53.6055 80.9014 53.459 81.1943 53.166C81.4873 52.873 81.6338 52.2383 81.6338 51.2617V38.957Z" fill="black"/>
<path d="M106.8 38.957H103.309V34.3916H106.8V33.0488C106.8 29.696 107.679 27.279 109.437 25.7979C111.194 24.3005 114.018 23.5518 117.908 23.5518C120.61 23.5518 122.767 24.0807 124.378 25.1387C126.006 26.1803 126.819 27.5638 126.819 29.2891C126.819 30.4121 126.412 31.3398 125.599 32.0723C124.801 32.7884 123.768 33.1465 122.498 33.1465C121.375 33.1465 120.455 32.8454 119.739 32.2432C119.023 31.641 118.665 30.876 118.665 29.9482C118.665 29.346 118.812 28.8089 119.104 28.3369C119.414 27.8649 119.861 27.4499 120.447 27.0918C120.154 27.0104 119.902 26.9535 119.69 26.9209C119.495 26.8721 119.316 26.8477 119.153 26.8477C118.258 26.8477 117.615 27.165 117.225 27.7998C116.85 28.4346 116.663 29.5658 116.663 31.1934V34.3916H121.009V38.957H116.663V51.1885C116.663 52.1813 116.81 52.8324 117.103 53.1416C117.412 53.4508 118.047 53.6055 119.007 53.6055H121.106V58H103.309V53.6055H104.505C105.449 53.6055 106.067 53.459 106.36 53.166C106.653 52.873 106.8 52.2383 106.8 51.2617V38.957Z" fill="black"/>
<path d="M154.476 49.7969C153.906 52.8568 152.588 55.1436 150.521 56.6572C148.453 58.1546 145.605 58.9033 141.976 58.9033C137.825 58.9033 134.546 57.764 132.137 55.4854C129.728 53.2067 128.523 50.1143 128.523 46.208C128.523 42.3343 129.728 39.25 132.137 36.9551C134.562 34.6439 137.809 33.4883 141.878 33.4883C145.898 33.4883 148.982 34.6357 151.131 36.9307C153.296 39.2093 154.378 42.4808 154.378 46.7451V47.5996H138.68V48.0879C138.68 50.0736 139.095 51.5954 139.925 52.6533C140.755 53.7113 141.935 54.2402 143.465 54.2402C144.767 54.2402 145.833 53.8577 146.663 53.0928C147.493 52.3278 148.047 51.2292 148.323 49.7969H154.476ZM138.68 43.2051H145.931V42.8389C145.931 41.2764 145.613 40.0719 144.979 39.2256C144.344 38.3792 143.44 37.9561 142.269 37.9561C141.129 37.9561 140.242 38.4118 139.607 39.3232C138.989 40.2347 138.68 41.5286 138.68 43.2051Z" fill="black"/>
<path d="M187.894 49.7969C187.324 52.8568 186.006 55.1436 183.938 56.6572C181.871 58.1546 179.023 58.9033 175.394 58.9033C171.243 58.9033 167.964 57.764 165.555 55.4854C163.146 53.2067 161.941 50.1143 161.941 46.208C161.941 42.3343 163.146 39.25 165.555 36.9551C167.98 34.6439 171.227 33.4883 175.296 33.4883C179.316 33.4883 182.4 34.6357 184.549 36.9307C186.714 39.2093 187.796 42.4808 187.796 46.7451V47.5996H172.098V48.0879C172.098 50.0736 172.513 51.5954 173.343 52.6533C174.173 53.7113 175.353 54.2402 176.883 54.2402C178.185 54.2402 179.251 53.8577 180.081 53.0928C180.911 52.3278 181.465 51.2292 181.741 49.7969H187.894ZM172.098 43.2051H179.349V42.8389C179.349 41.2764 179.031 40.0719 178.396 39.2256C177.762 38.3792 176.858 37.9561 175.687 37.9561C174.547 37.9561 173.66 38.4118 173.025 39.3232C172.407 40.2347 172.098 41.5286 172.098 43.2051Z" fill="black"/>
<path d="M234.881 24.4551V29.1914H234.319C233.31 29.1914 232.651 29.3542 232.342 29.6797C232.033 29.9889 231.878 30.7783 231.878 32.0479V38.1025H241.18V32.0479C241.18 30.7783 241.017 29.9889 240.691 29.6797C240.382 29.3542 239.723 29.1914 238.714 29.1914H238.177V24.4551H256.78V29.1914H255.071C253.899 29.1914 253.143 29.346 252.801 29.6553C252.475 29.9482 252.312 30.7458 252.312 32.0479V50.3584C252.312 51.6605 252.475 52.4661 252.801 52.7754C253.143 53.0846 253.899 53.2393 255.071 53.2393H256.78V58H238.177V53.2393H238.714C239.707 53.2393 240.366 53.0765 240.691 52.751C241.017 52.4255 241.18 51.6279 241.18 50.3584V42.8389H231.878V50.3584C231.878 51.6279 232.033 52.4255 232.342 52.751C232.667 53.0765 233.326 53.2393 234.319 53.2393H234.881V58H216.277V53.2393H217.962C219.085 53.2393 219.826 53.109 220.184 52.8486C220.542 52.5719 220.721 51.7419 220.721 50.3584V32.0479C220.721 30.7295 220.558 29.9238 220.232 29.6309C219.907 29.3379 219.15 29.1914 217.962 29.1914H216.277V24.4551H234.881Z" fill="black"/>
<path d="M277.967 33.4883C282.41 33.4883 285.918 34.6276 288.489 36.9062C291.077 39.1849 292.371 42.2855 292.371 46.208C292.371 50.1143 291.085 53.1986 288.514 55.4609C285.958 57.7233 282.459 58.8545 278.016 58.8545C273.54 58.8545 270.032 57.7314 267.493 55.4854C264.97 53.2393 263.709 50.1468 263.709 46.208C263.709 42.2529 264.97 39.1442 267.493 36.8818C270.032 34.6195 273.523 33.4883 277.967 33.4883ZM281.702 46.208C281.702 43.1644 281.417 41.0648 280.848 39.9092C280.294 38.7373 279.334 38.1514 277.967 38.1514C276.632 38.1514 275.688 38.7373 275.135 39.9092C274.581 41.0648 274.305 43.1644 274.305 46.208C274.305 49.2516 274.581 51.3512 275.135 52.5068C275.704 53.6624 276.681 54.2402 278.064 54.2402C279.399 54.2402 280.335 53.6706 280.872 52.5312C281.425 51.3757 281.702 49.2679 281.702 46.208Z" fill="black"/>
<path d="M342.947 58.3418H339.432V49.6992H343.851C344.371 51.2292 345.193 52.3766 346.316 53.1416C347.456 53.9066 348.896 54.2891 350.638 54.2891C351.793 54.2891 352.632 54.1344 353.152 53.8252C353.673 53.4997 353.934 52.9951 353.934 52.3115C353.934 51.4001 352.632 50.5618 350.027 49.7969C349.148 49.5365 348.457 49.3249 347.952 49.1621C344.176 47.9577 341.727 46.8265 340.604 45.7686C339.497 44.7106 338.943 43.2702 338.943 41.4473C338.943 39.0221 339.944 37.0934 341.946 35.6611C343.965 34.2126 346.699 33.4883 350.149 33.4883C351.696 33.4883 353.177 33.6429 354.593 33.9521C356.009 34.2614 357.392 34.7253 358.743 35.3438L359.451 33.9521H363.138V41.3984H359.231C358.548 40.2266 357.628 39.3314 356.473 38.7129C355.317 38.0781 354.023 37.7607 352.591 37.7607C351.598 37.7607 350.817 37.9235 350.247 38.249C349.677 38.5583 349.393 38.9896 349.393 39.543C349.393 40.5521 350.638 41.431 353.128 42.1797C353.763 42.375 354.259 42.5296 354.617 42.6436C354.926 42.7412 355.358 42.8714 355.911 43.0342C358.597 43.8643 360.525 44.6699 361.697 45.4512C362.527 46.0046 363.162 46.7451 363.602 47.6729C364.057 48.6006 364.285 49.6423 364.285 50.7979C364.285 53.3044 363.309 55.2738 361.355 56.7061C359.402 58.1383 356.717 58.8545 353.299 58.8545C351.476 58.8545 349.751 58.651 348.123 58.2441C346.512 57.8372 345.088 57.2594 343.851 56.5107L342.947 58.3418Z" fill="black"/>
<path d="M398.46 49.7969C397.89 52.8568 396.572 55.1436 394.505 56.6572C392.438 58.1546 389.59 58.9033 385.96 58.9033C381.81 58.9033 378.53 57.764 376.121 55.4854C373.712 53.2067 372.508 50.1143 372.508 46.208C372.508 42.3343 373.712 39.25 376.121 36.9551C378.546 34.6439 381.793 33.4883 385.862 33.4883C389.882 33.4883 392.967 34.6357 395.115 36.9307C397.28 39.2093 398.362 42.4808 398.362 46.7451V47.5996H382.664V48.0879C382.664 50.0736 383.079 51.5954 383.909 52.6533C384.739 53.7113 385.919 54.2402 387.449 54.2402C388.751 54.2402 389.817 53.8577 390.647 53.0928C391.478 52.3278 392.031 51.2292 392.308 49.7969H398.46ZM382.664 43.2051H389.915V42.8389C389.915 41.2764 389.598 40.0719 388.963 39.2256C388.328 38.3792 387.425 37.9561 386.253 37.9561C385.114 37.9561 384.227 38.4118 383.592 39.3232C382.973 40.2347 382.664 41.5286 382.664 43.2051Z" fill="black"/>
<path fill-rule="evenodd" clip-rule="evenodd" d="M318.937 37.6169L316.006 36.3183C315.064 35.9004 313.702 35.094 312.676 33.9667C311.649 32.8373 310.698 31.0517 311.513 28.9751C311.929 27.9172 312.625 27.0566 313.27 26.3524C313.556 26.0408 313.858 25.7334 314.138 25.447C314.178 25.4068 314.217 25.3671 314.255 25.3278C314.577 24.9988 314.874 24.6922 315.149 24.3808C316.207 23.1804 316.776 22.1092 316.418 20.4725L315.701 17.1905L318.753 18.5952C320.506 19.4021 322.207 20.4012 323.165 21.7433C323.679 22.4625 324.013 23.3258 323.975 24.3056C323.939 25.2686 323.551 26.1591 322.961 26.9633C322.479 27.6217 321.881 28.2975 321.323 28.9287C321.296 28.9596 321.269 28.9904 321.241 29.0211C320.638 29.7041 320.064 30.3585 319.57 31.027C318.549 32.4077 318.138 33.4936 318.328 34.4702L318.937 37.6169ZM316.684 34.7882C316.562 34.1567 316.593 33.5404 316.737 32.9396C317.179 31.0908 318.683 29.389 320.048 27.8442C320.624 27.1924 321.176 26.5686 321.612 25.9736C323.07 23.9859 322.104 22.4259 319.865 21.0634C319.329 20.7371 318.72 20.4222 318.053 20.1154C318.206 20.8159 318.232 21.449 318.162 22.029C317.926 23.9742 316.604 25.3227 315.332 26.6198C314.405 27.5657 313.504 28.4843 313.071 29.587C312.409 31.2726 313.605 32.7617 314.939 33.7593C315.546 34.2134 316.182 34.5656 316.684 34.7882Z" fill="black"/>
<path fill-rule="evenodd" clip-rule="evenodd" d="M312.114 34.5501L309.184 33.2524C307.467 32.4921 305.002 31.0243 303.183 29.0261C301.362 27.0259 299.926 24.1594 301.207 20.9016C301.913 19.1057 303.117 17.5929 304.345 16.2538C304.887 15.6637 305.459 15.0811 306.012 14.5171C306.09 14.4381 306.167 14.3594 306.243 14.2812C306.877 13.6348 307.486 13.0066 308.055 12.3609C310.295 9.82286 311.773 7.21029 310.915 3.28139L310.198 0L313.249 1.40366C316.665 2.97478 319.659 4.79067 321.277 7.05503C322.121 8.23543 322.626 9.58651 322.569 11.0871C322.513 12.5708 321.914 14.0149 320.888 15.412C319.985 16.6431 318.856 17.919 317.744 19.176C317.697 19.2296 317.65 19.2832 317.602 19.3368C316.422 20.6712 315.25 22.0059 314.231 23.3826C312.161 26.1799 310.999 28.794 311.504 31.404L312.114 34.5501ZM309.861 31.7222C309.735 31.0721 309.692 30.4302 309.721 29.7966C309.912 25.5051 313.372 21.5937 316.468 18.0933C317.599 16.8141 318.682 15.5898 319.539 14.4218C322.749 10.0481 319.976 6.72926 314.404 3.82927C313.816 3.52312 313.197 3.22164 312.55 2.92407C312.701 3.61697 312.789 4.27622 312.822 4.90545C313.071 9.71245 310.073 12.7677 307.206 15.6903C305.384 17.5467 303.615 19.3496 302.764 21.5139C301.196 25.5037 304.935 28.9325 308.058 30.785C308.703 31.1676 309.321 31.4831 309.861 31.7222Z" fill="black"/>
<path fill-rule="evenodd" clip-rule="evenodd" d="M299 46.0123V36.3216H327.415V39.1138C330.745 39.434 332.408 41.4958 333.216 43.5468C334.145 45.9077 333.977 48.6991 332.564 50.8063C330.045 54.5629 325.318 54.2376 324.13 53.8414C319.969 58.3856 315.48 58.9879 312.633 58.9879C302.865 58.5937 299.474 50.1732 299 46.0123ZM303.325 38.7848H302.011C302.011 44.7986 302.011 46.3002 302.388 47.6999C302.514 48.1657 302.681 48.6202 302.904 49.226C302.951 49.352 303 49.4846 303.051 49.6252C304.091 52.4721 308.69 55.3191 311.592 55.3191C307.705 54.3884 305.953 51.8699 304.42 49.6252C303.193 47.8294 303.179 41.65 303.325 38.7848ZM327.469 42.1245C327.542 44.0772 327.349 48.6068 325.991 51.1034C329.057 50.5559 330.042 49.2419 330.426 46.4497C330.732 44.2159 328.582 42.6355 327.469 42.1245Z" fill="black"/>
</svg>
