<svg width="312" height="291" viewBox="0 0 312 291" fill="none" xmlns="http://www.w3.org/2000/svg">
<path d="M0 0H312V291H0V0Z" fill="#ebebeb"/>
<path d="M134.934 96.3866C142.082 96.1819 148.987 93.7397 154.677 89.4029L154.594 89.4629C160.902 84.9393 168.414 82.4033 176.17 82.1793H176.229C180.181 81.7433 184.179 82.0032 188.042 82.9473L187.808 82.8993C190.739 83.7392 192.325 84.9992 192.564 86.6791C192.924 88.255 192.085 89.5429 190.048 90.5429C187.698 91.6509 185.155 92.2907 182.561 92.4268H182.507C179.505 93.0651 176.376 92.672 173.624 91.3108L173.702 91.3468C172.94 90.9753 172.262 90.4522 171.709 89.8096C171.156 89.167 170.74 88.4182 170.485 87.609L170.473 87.567C167.478 87.807 165.593 88.467 164.819 89.5469C164.107 90.4054 163.755 91.5062 163.836 92.6188V92.6068C164.196 94.2867 166.112 95.7866 169.587 97.1065C172.486 98.0185 175.816 98.5464 179.266 98.5464C180.98 98.5464 182.669 98.4144 184.31 98.1685L184.124 98.1925H184.316C189.641 98.1925 194.589 96.5425 198.668 93.7347L198.584 93.7887C199.759 92.8764 200.669 91.6661 201.22 90.2831C201.77 88.9002 201.942 87.3949 201.717 85.9231L201.723 85.9711C201.004 82.3713 197.983 79.3455 192.66 76.8936C185.387 74.1858 177.55 73.3603 169.874 74.4937L170.126 74.4637C157.678 75.6477 149.748 78.2855 146.333 82.3773C141.629 86.9987 135.3 89.5824 128.711 89.5709H128.453H128.465C125.749 89.9904 122.974 89.7957 120.343 89.0009L120.475 89.0369C119.671 88.839 118.93 88.4418 118.32 87.8819C117.71 87.3221 117.25 86.6175 116.982 85.8331L116.97 85.7971C116.91 85.1678 117.06 84.5363 117.398 84.0019C117.735 83.4675 118.24 83.0607 118.833 82.8453L118.851 82.8393C120.343 82.1553 122.08 81.6753 123.901 81.4954L123.967 81.4893C125.906 81.3668 127.854 81.4654 129.771 81.7833L129.621 81.7653C131.322 81.9813 132.874 82.3953 134.323 82.9953L134.198 82.9533C134.857 82.7155 135.443 82.3103 135.899 81.7773L135.905 81.7713C136.053 81.5813 136.154 81.359 136.201 81.1225C136.248 80.886 136.239 80.6417 136.174 80.4094V80.4214C135.815 79.1015 134.499 78.1715 132.227 77.6316C129.474 77.0469 126.646 76.8991 123.847 77.1936L123.961 77.1816C117.735 77.7816 114.113 79.1615 113.095 81.3214C112.178 82.908 111.768 84.7381 111.921 86.5651V86.5351C112.446 88.3644 113.408 90.0384 114.722 91.4128C116.037 92.7872 117.666 93.8209 119.468 94.4247L119.552 94.4487C122.912 95.8526 126.812 96.6685 130.909 96.6685C132.317 96.6685 133.7 96.5725 135.054 96.3866L134.898 96.4045L134.934 96.3866ZM219.154 124.813C215.32 125.769 211.189 126.609 206.76 127.333C202.332 128.057 197.664 128.649 192.756 129.109C187.848 129.589 182.641 129.983 177.134 130.291C171.627 130.599 165.941 130.749 160.074 130.741C153.969 130.741 148.162 130.591 142.656 130.291C137.149 129.991 131.911 129.571 126.944 129.031C121.976 128.491 117.278 127.863 112.849 127.147C108.421 126.431 104.29 125.643 100.456 124.783C94.7166 123.445 89.1318 121.513 83.7918 119.017L84.3129 119.239C81.2983 117.961 78.6534 115.943 76.6218 113.372L76.5918 113.33C77.2807 118.531 78.1911 123.067 79.3712 127.501L79.1975 126.733C80.5752 132.043 81.9588 136.332 83.5462 140.52L83.2407 139.602C81.4097 140.708 79.6851 141.981 78.0893 143.406L78.1193 143.376C76.4833 144.841 74.9706 146.438 73.5968 148.152L73.5369 148.23C70.9391 151.444 68.9608 155.114 67.7027 159.053L67.6368 159.293C66.4336 163.115 65.8867 167.113 66.0195 171.119V171.065C66.2291 175.06 67.3672 178.75 69.2241 181.972L69.1642 181.852C71.0769 185.126 73.5719 188.022 76.5259 190.395L76.5858 190.443C79.4721 192.787 82.8384 194.465 86.4454 195.357L86.6191 195.393C90.3455 196.183 94.1936 196.204 97.9282 195.453L97.7485 195.483C99.5335 195.195 101.133 194.721 102.642 194.085L102.505 194.139C104.122 193.479 105.707 192.909 107.261 192.429H107.069C103.976 192.433 100.91 191.864 98.024 190.749L98.1977 190.809C95.1635 189.606 92.3266 187.954 89.7818 185.908L89.8417 185.956C87.0273 183.844 84.5925 181.267 82.6417 178.336L82.5698 178.222C80.5972 175.238 79.3405 171.838 78.898 168.287L78.886 168.173C78.1579 164.831 78.1681 161.37 78.9159 158.033L78.886 158.189C79.6403 154.908 80.9994 151.797 82.8933 149.016L82.8334 149.106C83.3126 148.626 83.7618 148.148 84.1811 147.672C84.6004 147.196 85.0497 146.718 85.5289 146.238C86.6071 148.998 87.7731 151.696 89.027 154.331C90.281 156.967 91.6387 159.547 93.1002 162.071C95.9715 166.507 98.9045 170.793 101.9 174.928C104.895 179.064 107.886 183.224 110.873 187.408C111.999 189.484 113.119 191.973 114.065 194.553L114.197 194.961C114.958 196.983 115.671 199.455 116.204 201.993L116.264 202.335C118.282 205.071 120.654 207.399 123.35 209.3L123.446 209.366C126.129 211.238 129.226 212.768 132.544 213.8L132.784 213.866C136.456 215.18 140.811 216.278 145.303 216.962L145.704 217.01C149.73 217.64 154.372 218 159.098 218H160.068C164.873 217.995 169.67 217.61 174.414 216.848L173.893 216.914C178.667 216.197 183.368 215.056 187.94 213.506L187.365 213.674C190.565 212.62 193.597 211.111 196.368 209.192L196.248 209.27C198.975 207.362 201.351 204.992 203.268 202.269L203.328 202.179H203.867C204.347 200.019 204.973 197.621 205.748 194.985C206.641 192.009 207.707 189.448 209.001 187.024L208.887 187.252C211.758 183.056 214.691 178.918 217.686 174.838C220.681 170.759 223.674 166.443 226.665 161.891C230.56 154.852 233.8 147.469 236.345 139.836L236.627 138.87C239.29 130.953 241.365 122.85 242.832 114.626L243 113.51C240.844 116.128 238.13 118.229 235.057 119.659L234.919 119.719C230.033 122.055 224.868 123.751 219.549 124.765L219.142 124.831L219.154 124.813ZM100.462 112.394C104.296 113.35 108.427 114.19 112.855 114.914C117.284 115.638 121.952 116.229 126.86 116.689C131.768 117.169 136.945 117.529 142.392 117.769C147.839 118.009 153.543 118.129 159.505 118.129C165.611 118.129 171.388 118.009 176.834 117.769C182.281 117.529 187.459 117.169 192.367 116.689C197.274 116.209 201.913 115.582 206.281 114.806C210.65 114.03 214.809 113.22 218.758 112.376C225.249 110.986 231.511 108.683 237.357 105.536L236.986 105.722C240.995 103.326 243 100.928 243 98.5284C242.953 97.541 242.698 96.5746 242.252 95.6927C241.806 94.8108 241.179 94.0331 240.412 93.4107L240.4 93.3987C238.244 91.5352 235.779 90.0632 233.117 89.0489L232.949 88.9949C233.668 89.4929 234.261 90.1229 234.704 90.8549L234.722 90.8788C235.187 91.6039 235.436 92.4468 235.441 93.3087C235.441 95.8286 233.586 98.1065 229.876 100.142C225.06 102.554 219.471 104.48 213.607 105.644L213.182 105.716C206.237 107.156 198.337 108.386 189.479 109.406C181.033 110.384 171.246 110.942 161.326 110.942L159.967 110.936H160.038H159.062C149.131 110.936 139.319 110.414 129.657 109.394L130.861 109.496C122.427 108.674 114.044 107.386 105.751 105.638L107.249 105.902C101.438 104.628 95.8098 102.631 90.4946 99.9564L90.9019 100.142C87.1921 98.1065 85.3372 95.8886 85.3372 93.4887V93.4827C85.3372 92.3608 85.6367 91.3108 86.1638 90.4049L86.1459 90.4349C86.9066 89.2589 87.8949 88.293 89.057 87.579L89.0989 87.555C85.4046 88.9068 81.8726 90.6676 78.5685 92.8047L78.7782 92.6787C76.7356 93.8787 75.3639 96.0326 75.28 98.5164V98.5284C75.5196 101.048 77.704 103.506 81.8331 105.902C87.2061 108.746 93.4297 110.996 99.9887 112.328L100.438 112.406L100.462 112.394Z" fill="black"/>
</svg>
